<?xml version="1.0" encoding="UTF-8" standalone="no"?>
<!-- Created with Inkscape (http://www.inkscape.org/) -->

<svg
   width="33.694996mm"
   height="30.964315mm"
   viewBox="0 0 33.694996 30.964315"
   version="1.1"
   id="svg5"
   inkscape:version="1.1.1 (3bf5ae0d25, 2021-09-20)"
   sodipodi:docname="braneni.svg"
   inkscape:export-filename="C:\Users\vaclav.cerny\Dropbox\braneni.png"
   inkscape:export-xdpi="753.82001"
   inkscape:export-ydpi="753.82001"
   xmlns:inkscape="http://www.inkscape.org/namespaces/inkscape"
   xmlns:sodipodi="http://sodipodi.sourceforge.net/DTD/sodipodi-0.dtd"
   xmlns="http://www.w3.org/2000/svg"
   xmlns:svg="http://www.w3.org/2000/svg">
  <sodipodi:namedview
     id="namedview7"
     pagecolor="#ffffff"
     bordercolor="#666666"
     borderopacity="1.0"
     inkscape:pageshadow="2"
     inkscape:pageopacity="0.0"
     inkscape:pagecheckerboard="0"
     inkscape:document-units="mm"
     showgrid="false"
     fit-margin-top="0"
     fit-margin-left="0"
     fit-margin-right="0"
     fit-margin-bottom="0"
     inkscape:zoom="5.9295174"
     inkscape:cx="75.807181"
     inkscape:cy="73.783407"
     inkscape:window-width="1920"
     inkscape:window-height="1017"
     inkscape:window-x="1912"
     inkscape:window-y="-8"
     inkscape:window-maximized="1"
     inkscape:current-layer="layer1" />
  <defs
     id="defs2" />
  <g
     inkscape:label="Vrstva 1"
     inkscape:groupmode="layer"
     id="layer1"
     transform="translate(-96.491108,-136.54439)">
    <path
       style="fill:#000000;stroke-width:0.264583"
       d="m 104.29632,167.3843 c -1.81901,-0.11471 -4.319327,-0.4225 -5.556254,-0.68397 l -2.248958,-0.47541 0.0195,-8.0698 c 0.0371,-15.35434 0.164132,-20.87115 0.49086,-21.31798 0.282793,-0.38674 0.516908,-0.38821 2.677887,-0.0168 3.872805,0.66561 12.166585,1.08212 20.574155,1.03322 4.33807,-0.0252 8.09985,-0.1133 8.35952,-0.19572 0.44017,-0.1397 0.48344,0.24899 0.63921,5.74195 0.0919,3.24049 0.28015,6.96336 0.41834,8.27305 0.13818,1.30969 0.33202,5.065 0.43076,8.34515 0.14636,4.86225 0.11331,6.01672 -0.1789,6.24988 -0.1989,0.1587 -2.12472,0.35416 -4.32717,0.43917 -2.18281,0.0842 -5.69515,0.27064 -7.8052,0.41419 -6.06392,0.41253 -9.92895,0.48789 -13.49375,0.26308 z m 0.99871,-2.8506 c 0.18549,-1.22121 0.28045,-2.27719 0.21103,-2.34661 -0.0694,-0.0694 -0.30033,0.0479 -0.51315,0.26073 -0.74054,0.74054 -1.98497,1.09965 -2.69289,0.7771 -0.94001,-0.4283 -0.84094,-1.52629 0.33129,-3.67163 1.63023,-2.98354 3.72487,-4.63707 7.15511,-5.64834 0.61846,-0.18233 1.12448,-0.40562 1.12448,-0.4962 0,-0.0906 -0.345,-0.29492 -0.76667,-0.45408 -1.30478,-0.4925 -1.46017,-1.18264 -0.54938,-2.43995 0.43279,-0.59745 1.43258,-1.20454 1.38927,-1.42138 -0.27888,-1.39616 0.49653,-2.84289 1.07691,-3.2494 0.34744,-0.24336 1.18636,-0.38882 2.24249,-0.38882 1.57497,0 1.74894,0.0616 2.61144,0.92407 0.85726,0.85725 0.91751,1.02463 0.83344,2.3151 -0.0801,1.2292 -0.0285,1.39994 0.44318,1.46753 0.34361,0.0492 0.63383,0.39605 0.81452,0.97335 0.33325,1.06471 -0.11136,2.01272 -1.19897,2.55646 l -0.67852,0.33922 0.79375,0.0906 c 0.43656,0.0499 1.35015,0.26997 2.0302,0.48915 2.9233,0.94217 5.85703,6.21725 4.42042,7.94826 -0.35268,0.42496 -1.6449,0.47126 -2.36697,0.0848 -0.47071,-0.25192 -0.87211,-1.27147 -0.48047,0.8599 0.11274,0.61355 0.1077,1.49097 0.20107,1.92754 l -0.004,0.77797 2.94903,-0.0684 c 1.52681,-0.0354 3.17081,-0.22209 3.65398,-0.39061 l 0.87849,-0.3064 -0.18085,-4.76877 c -0.0995,-2.62282 -0.26467,-5.84033 -0.3671,-7.15001 -0.10242,-1.30969 -0.21588,-5.05811 -0.25211,-8.32983 -0.0362,-3.27171 -0.12771,-6.01015 -0.20328,-6.08542 -0.19056,-0.18977 -0.38054,-0.19446 -15.96718,-0.39405 -8.49457,-0.10878 -14.027984,-0.0818 -14.244212,0.0694 -0.281982,0.19721 -0.368888,2.25048 -0.429157,10.13943 -0.04157,5.44067 -0.0015,11.49948 0.089,13.46401 l 0.164574,3.57187 2.513545,0.44373 c 1.38244,0.24406 2.98979,0.42265 3.57187,0.39688 l 1.05834,-0.0469 z m 4.329,0.83132 c 0.0198,-0.83675 0.0741,-1.9976 0.12057,-2.57969 0.24286,-3.04097 0.29108,-4.10104 0.18652,-4.10104 -0.0635,0 -0.64297,0.36291 -1.28765,0.80646 -1.07183,0.73744 -1.17229,0.90162 -1.17374,1.91823 -8.7e-4,0.61147 -0.0781,2.09403 -0.17151,3.29458 l -0.16992,2.18281 h 1.22984 1.22984 z m 3.13895,1.27782 c 0,-0.13394 0.12707,-2.05241 0.28237,-4.26325 0.27703,-3.94364 0.27169,-4.02966 -0.28208,-4.54556 -0.31044,-0.28923 -1.07301,-0.42748 -1.1547,-0.34578 -0.5078,0.50779 -0.67772,8.52361 -0.25991,9.19969 0.1761,0.28495 1.41432,0.24547 1.41432,-0.0451 z m 3.96875,-5.01816 c 0.0728,-2.66426 0.0436,-4.89865 -0.0647,-4.96532 -0.10836,-0.0667 -0.5423,0.21284 -0.96432,0.62113 l -0.76731,0.74234 -0.13945,4.27609 c -0.0767,2.35184 -0.0852,4.33029 -0.019,4.39654 0.0663,0.0662 0.50342,0.0423 0.97148,-0.0531 l 0.85103,-0.17357 z m 2.91271,1.29005 c 0.12884,-3.41665 0.10942,-3.59661 -0.455,-4.21641 -0.32427,-0.35608 -0.64094,-0.59421 -0.70371,-0.52917 -0.26532,0.27495 -0.30705,8.18635 -0.0438,8.29931 0.95152,0.4083 1.06583,0.0705 1.2025,-3.55373 z m -13.28437,-2.57679 c 1.23279,-0.69123 3.16511,-2.05574 4.29405,-3.03226 2.13738,-1.84881 5.08577,-3.64847 5.97729,-3.64847 0.28445,0 0.90336,-0.32742 1.37535,-0.72761 0.81861,-0.69406 0.84283,-0.76749 0.52532,-1.59278 -0.21132,-0.54929 -0.46479,-0.81455 -0.69421,-0.72651 -0.21226,0.0815 -0.41857,-0.0801 -0.50002,-0.39159 -0.0763,-0.29165 -0.32663,-0.53026 -0.55635,-0.53026 -0.5201,0 -1.90185,1.29498 -1.90185,1.78243 0,1.31803 -2.41262,3.18129 -7.66817,5.92211 -0.94328,0.49193 -2.23319,1.38959 -2.86647,1.99481 -1.006,0.96141 -1.11403,1.17027 -0.85533,1.65365 0.16285,0.30428 0.37098,0.55325 0.46252,0.55325 0.0915,0 1.17508,-0.56555 2.40787,-1.25677 z m 17.2507,-0.66146 c -8e-5,-0.38495 -0.46154,-0.99267 -1.30587,-1.71979 -0.71816,-0.61847 -1.37927,-1.12448 -1.46912,-1.12448 -0.0898,0 -0.59994,-0.29666 -1.13353,-0.65924 -0.94278,-0.64064 -4.2235,-1.88014 -4.42995,-1.67369 -0.093,0.093 0.78922,0.80356 4.36985,3.51953 0.65484,0.49671 1.54781,1.20322 1.98438,1.57002 1.02903,0.86461 1.98442,0.90681 1.98424,0.0876 z m -18.19325,-1.78594 c 0.61775,-0.4132 0.78998,-0.40262 0.79138,-0.65067 5.9e-4,-0.10471 0.16522,-0.67038 0.006,-0.66273 -0.25732,0.0123 -1.42836,1.03776 -1.92674,1.68716 -0.46229,0.60237 -0.19983,0.51554 1.12971,-0.37376 z m 9.14516,-0.36979 c 0.3933,-0.20338 0.93728,-0.6153 1.20884,-0.91537 0.48759,-0.53877 0.37753,-0.37804 -0.4594,-1.00011 -0.35119,-0.26103 -0.49032,-0.44171 -0.78642,-0.48015 -0.44488,-0.0577 -1.10008,0.47801 -1.89501,1.07721 -0.52148,0.39308 -0.51838,0.40824 0.21319,1.04354 0.87205,0.75729 0.80627,0.74677 1.7188,0.27488 z m -4.42033,-2.32461 c -0.0128,-0.15088 -0.0185,-0.4064 -0.17558,-0.4701 -0.15033,-0.061 -0.44586,0.065 -0.73237,0.13533 -0.46857,0.115 -0.98973,0.36908 -1.22874,0.58903 -0.23901,0.21995 -0.0781,0.37048 -0.0713,0.60733 0.002,0.0833 -0.0736,0.38272 0.11731,0.37487 0.54509,-0.0224 1.82987,-0.6349 2.14189,-1.02024 0.0659,-0.0814 -0.0441,-0.13196 -0.0512,-0.21622 z m 3.41438,-2.10912 c 0,-0.13694 -0.41524,-0.89811 -0.92275,-1.69148 -0.60599,-0.94731 -1.10186,-1.4425 -1.4445,-1.4425 -0.63532,0 -1.90424,1.30271 -1.80404,1.85208 0.0399,0.21892 0.72442,0.61221 1.52653,0.8771 0.79977,0.26412 1.55794,0.58223 1.68482,0.70692 0.27397,0.26927 0.95994,0.0534 0.95994,-0.30212 z m 0.95692,-1.81106 c 0.2329,-0.58209 0.52959,-1.05834 0.65931,-1.05834 0.12972,0 0.23586,-0.11906 0.23586,-0.26458 0,-0.14699 -0.70556,-0.26458 -1.5875,-0.26458 -0.87313,0 -1.5875,0.0781 -1.5875,0.17346 0,0.0954 0.29765,0.56371 0.66146,1.04068 0.3638,0.47697 0.66145,0.99422 0.66145,1.14945 0,0.66018 0.56587,0.20124 0.95692,-0.77609 z"
       id="path854"
       sodipodi:nodetypes="sscssssssssscssssssssssssssssssssccssssscssccssssssscsccsccssscccccssscsscsscsccccssssssssssscsssssssscssssssccsscssssssssssssssssssssssssssssssssss" />
  </g>
</svg>
